# xmcd CD database file
#
# Track frame offsets:
#	150
#	14802
#	27112
#	46605
#	67145
#	85775
#	100885
#	112685
#	124985
#	132737
#	146180
#	177827
#
# Disc length: 2528 seconds
#
# Revision: 0
# Processed by: cddbd v1.4PL0 Copyright (c) Steve Scherf et al.
# Submitted via: CDex 1.40Release
#
DISCID=a809de0c
DTITLE=Keith Secola - Keith Secola and A Wild Band of Indians
DYEAR=1900
DGENRE=Native American
TTITLE0=Rasp
TTITLE1=Frybread
TTITLE2=Innocent Man
TTITLE3=4R Ancestors 
TTITLE4=Sun of Indian Car
TTITLE5=One O Three
TTITLE6=Firestorm
TTITLE7=Things To Do
TTITLE8=When I'm Far Away
TTITLE9=Ishpiming
TTITLE10=Wide Open Spaces
TTITLE11=Rasp II
EXTD=ID3G: 64
EXTT0=
EXTT1=
EXTT2=
EXTT3=
EXTT4=
EXTT5=
EXTT6=
EXTT7=
EXTT8=
EXTT9=
EXTT10=
EXTT11=
PLAYORDER=
